<?xml version="1.0" standalone="no"?>
<!DOCTYPE svg PUBLIC "-//W3C//DTD SVG 20010904//EN"
 "http://www.w3.org/TR/2001/REC-SVG-20010904/DTD/svg10.dtd">
<svg version="1.0" xmlns="http://www.w3.org/2000/svg"
 width="512.000000pt" height="512.000000pt" viewBox="0 0 512.000000 512.000000"
 preserveAspectRatio="xMidYMid meet">

<g transform="translate(0.000000,512.000000) scale(0.100000,-0.100000)"
fill="#000000" stroke="none">
<path d="M2393 4770 c-294 -42 -588 -199 -776 -415 -189 -218 -295 -473 -313
-756 l-7 -99 -59 0 c-93 0 -98 -9 -98 -180 l0 -140 -420 0 c-407 0 -421 -1
-440 -20 -24 -24 -26 -73 -5 -155 97 -377 623 -687 1405 -829 478 -87 1065
-100 1540 -36 267 37 613 120 833 201 43 16 80 29 83 29 15 0 104 -219 104
-257 0 -7 -101 -80 -224 -162 -123 -82 -226 -157 -230 -166 -3 -9 -6 -281 -6
-605 l0 -588 28 -53 c20 -39 41 -62 77 -84 l48 -30 371 -3 c411 -3 422 -2 486
61 72 70 70 45 70 700 0 343 -4 596 -9 606 -5 9 -117 89 -249 176 l-239 159
-17 67 c-10 38 -35 104 -56 148 l-39 80 77 42 c325 178 505 386 528 612 6 57
4 67 -15 86 -21 21 -26 21 -441 21 l-420 0 0 140 c0 171 -5 180 -100 180 l-60
0 0 53 c0 70 -25 225 -50 314 -106 378 -410 705 -779 837 -130 47 -245 67
-396 71 -77 2 -168 0 -202 -5z m347 -125 c104 -17 240 -60 322 -101 218 -109
413 -304 522 -522 62 -124 116 -343 116 -474 l0 -48 -1140 0 -1140 0 0 53 c0
81 28 232 60 329 177 527 712 851 1260 763z m1120 -1365 l0 -100 -1300 0
-1300 0 0 100 0 100 1300 0 1300 0 0 -100z m870 -235 c0 -34 -44 -125 -91
-187 -78 -104 -244 -229 -411 -309 l-48 -23 -77 75 c-160 154 -280 211 -314
148 -20 -39 -3 -66 72 -110 39 -22 101 -69 137 -103 l66 -63 -144 -47 c-262
-85 -549 -147 -845 -182 -186 -23 -747 -26 -950 -6 -809 80 -1447 327 -1665
646 -33 49 -70 133 -70 161 0 13 255 15 2170 15 1897 0 2170 -2 2170 -15z
m-470 -1199 l0 -114 -30 -12 c-41 -17 -105 -89 -120 -135 -32 -96 16 -209 109
-257 170 -89 361 65 311 251 -13 49 -76 123 -120 141 l-30 12 0 114 c0 63 2
114 5 114 3 0 84 -52 180 -117 l175 -116 0 -553 c0 -408 -3 -560 -12 -579 -24
-53 -38 -55 -408 -55 -370 0 -384 2 -408 55 -9 19 -12 171 -12 579 l0 553 173
116 c94 64 175 116 180 116 4 1 7 -50 7 -113z m109 -240 c67 -35 65 -143 -4
-174 -51 -23 -107 -7 -131 39 -47 91 44 182 135 135z"/>
<path d="M742 1800 c-95 -25 -173 -70 -243 -139 -117 -118 -159 -240 -159
-461 0 -225 42 -344 166 -465 149 -148 366 -190 609 -120 334 97 567 369 616
719 l12 86 98 0 97 0 7 -67 c44 -416 388 -745 805 -770 173 -10 314 42 430
157 118 119 160 238 160 460 0 218 -42 340 -155 454 -75 77 -150 120 -251 146
-68 18 -111 20 -370 20 -328 0 -381 -8 -466 -73 -54 -42 -115 -121 -130 -169
l-11 -38 -117 0 -118 0 -6 28 c-12 45 -73 129 -127 171 -92 74 -136 81 -478
80 -259 0 -305 -3 -369 -19z m728 -124 c49 -26 98 -74 123 -121 19 -34 22 -56
22 -140 -1 -187 -74 -354 -215 -495 -94 -95 -188 -151 -320 -191 -106 -33
-270 -33 -350 -1 -113 46 -197 130 -242 242 -30 76 -38 315 -14 410 29 112 93
200 188 257 96 58 129 62 468 60 276 -2 308 -4 340 -21z m1480 -4 c113 -46
196 -129 242 -242 21 -50 23 -71 23 -230 0 -159 -2 -180 -23 -230 -46 -113
-130 -197 -242 -242 -80 -32 -245 -32 -350 1 -257 79 -433 255 -511 511 -31
100 -33 257 -5 310 35 67 96 119 166 141 14 4 165 7 335 6 296 -2 313 -3 365
-25z"/>
</g>
</svg>
