<?xml version="1.0" standalone="no"?>
<!DOCTYPE svg PUBLIC "-//W3C//DTD SVG 20010904//EN"
 "http://www.w3.org/TR/2001/REC-SVG-20010904/DTD/svg10.dtd">
<svg version="1.0" xmlns="http://www.w3.org/2000/svg"
 width="512.000000pt" height="512.000000pt" viewBox="0 0 512.000000 512.000000"
 preserveAspectRatio="xMidYMid meet">

<g transform="translate(0.000000,512.000000) scale(0.100000,-0.100000)"
fill="#000000" stroke="none">
<path d="M4389 5105 c-83 -22 -143 -59 -213 -129 l-69 -69 -1161 -9 c-639 -5
-1402 -12 -1697 -16 l-536 -7 -49 -30 c-123 -77 -151 -242 -57 -346 72 -80 87
-84 356 -87 l237 -4 0 -238 0 -238 -243 -4 c-235 -3 -244 -4 -322 -31 -206
-73 -356 -221 -429 -426 l-31 -86 -3 -1668 -2 -1668 24 -24 c32 -32 70 -32
101 0 25 24 25 26 25 205 l0 180 115 0 115 0 0 -180 c0 -179 0 -181 25 -205
31 -32 69 -32 100 0 25 24 25 26 25 205 l0 180 115 0 115 0 0 -180 c0 -179 0
-181 25 -205 31 -32 69 -32 100 0 25 24 25 26 25 205 l0 180 115 0 115 0 0
-180 c0 -179 0 -181 25 -205 31 -32 69 -32 100 0 25 24 25 26 25 205 l0 180
115 0 115 0 0 -180 c0 -179 0 -181 25 -205 31 -32 69 -32 100 0 25 24 25 26
25 205 l0 180 115 0 115 0 0 -180 c0 -179 0 -181 25 -205 30 -30 64 -32 99 -4
l26 20 0 185 0 184 115 0 115 0 0 -180 c0 -179 0 -181 25 -205 30 -30 64 -32
99 -4 l26 20 0 185 0 184 114 0 115 0 3 -186 c3 -181 4 -186 27 -205 30 -25
62 -24 95 2 l26 20 0 185 0 184 114 0 115 0 3 -186 c3 -181 4 -186 27 -205 30
-25 62 -24 95 2 l26 20 0 185 0 184 115 0 115 0 0 -170 c0 -131 3 -178 15
-199 23 -46 66 -54 109 -20 l26 20 0 185 0 184 115 0 115 0 0 -170 c0 -131 3
-178 15 -199 24 -47 78 -56 113 -18 l22 23 0 1867 0 1867 43 0 c139 0 283 -95
346 -229 l26 -56 3 -303 3 -303 -34 -34 c-30 -30 -42 -35 -82 -35 -57 0 -79
-11 -94 -49 -10 -24 -10 -34 3 -59 18 -36 33 -42 96 -42 100 0 191 55 234 142
l26 52 0 305 c0 233 -4 319 -15 360 -46 175 -188 322 -370 382 -32 11 -286 15
-1280 19 l-1240 5 0 400 0 400 570 6 c314 3 824 8 1134 9 l564 3 -1 -69 c-1
-38 2 -86 7 -107 l9 -39 -1017 8 -1018 7 -22 -22 c-26 -26 -27 -71 -2 -102
l19 -24 1060 -10 1059 -10 45 -41 c183 -169 461 -165 626 10 117 124 157 274
117 431 -61 233 -317 384 -546 320z m246 -169 c222 -109 217 -419 -8 -538 -34
-19 -58 -23 -127 -23 -93 0 -136 16 -204 76 -92 80 -119 236 -63 351 73 148
251 207 402 134z m-3005 -286 l0 -90 -135 0 -135 0 0 84 0 85 38 4 c20 2 81 4
135 5 l97 2 0 -90z m-430 -5 l0 -85 -212 0 c-228 0 -251 4 -277 51 -17 30 -9
71 19 99 19 19 34 20 245 20 l225 0 0 -85z m430 -475 l0 -240 -135 0 -135 0 0
240 0 240 135 0 135 0 0 -240z m2 -561 c3 -166 4 -171 27 -190 30 -25 76 -24
101 1 18 18 20 33 20 190 l0 170 1095 0 1095 0 0 -250 0 -250 -1825 0 c-1588
0 -1825 2 -1825 15 0 40 26 128 57 194 62 130 201 242 345 277 39 9 170 13
480 13 l427 1 3 -171z m2338 -579 l0 -100 -1825 0 -1825 0 0 100 0 100 1825 0
1825 0 0 -100z m-3230 -292 c0 -29 -23 -55 -202 -235 -112 -112 -206 -203
-210 -203 -5 0 -8 106 -8 235 l0 235 210 0 210 0 0 -32z m890 -6 c0 -35 -11
-48 -185 -222 l-185 -185 -185 185 c-174 174 -185 187 -185 222 l0 38 370 0
370 0 0 -38z m900 0 c0 -35 -11 -48 -185 -222 l-185 -185 -190 190 c-169 169
-190 193 -190 222 l0 33 375 0 375 0 0 -38z m900 6 c0 -29 -21 -54 -187 -220
l-188 -188 -187 187 c-167 167 -188 191 -188 220 l0 33 375 0 375 0 0 -32z
m540 -200 l0 -233 -195 195 c-184 184 -195 197 -195 232 l0 38 195 0 195 0 0
-232z m-3025 -108 l130 -130 -260 0 -260 0 130 130 c71 72 130 130 130 130 0
0 59 -58 130 -130z m900 0 l130 -130 -265 0 -265 0 130 130 c71 72 132 130
135 130 3 0 64 -58 135 -130z m890 0 l130 -130 -260 0 -260 0 130 130 c71 72
130 130 130 130 0 0 59 -58 130 -130z m900 0 l130 -130 -265 0 -265 0 130 130
c71 72 132 130 135 130 3 0 64 -58 135 -130z m335 -385 l0 -105 -1825 0 -1825
0 0 105 0 105 1825 0 1825 0 0 -105z m0 -365 l0 -110 -1825 0 -1825 0 0 110 0
110 1825 0 1825 0 0 -110z m-3280 -263 c0 -1 -83 -85 -185 -187 l-185 -185 0
188 0 187 185 0 c102 0 185 -1 185 -3z m557 -196 c-211 -212 -218 -222 -176
-275 15 -19 29 -26 57 -26 34 0 51 15 287 250 l251 250 269 0 270 0 -430 -430
-430 -430 -269 0 -269 0 72 75 c77 82 85 104 50 149 -15 19 -29 26 -56 26 -33
0 -48 -12 -163 -125 l-126 -125 -132 0 -132 0 0 132 0 133 297 297 298 298
264 0 265 0 -197 -199z m1713 191 c0 -4 -190 -197 -423 -430 l-423 -422 -274
0 -275 0 430 430 430 430 267 0 c148 0 268 -3 268 -8z m760 0 c0 -4 -190 -197
-423 -430 l-423 -422 -267 0 c-147 0 -267 3 -267 7 0 5 190 198 422 430 l423
423 267 0 c148 0 268 -3 268 -8z m250 -255 l0 -263 -168 -167 -168 -167 -267
0 c-147 0 -267 3 -267 7 0 13 844 853 857 853 10 0 13 -59 13 -263z m0 -537
l0 -60 -55 0 c-30 0 -55 3 -55 7 0 7 101 113 107 113 2 0 3 -27 3 -60z"/>
<path d="M766 3527 c-33 -33 -34 -76 -3 -105 33 -31 80 -29 106 4 39 50 16
108 -46 120 -26 5 -37 1 -57 -19z"/>
<path d="M2573 3540 c-72 -30 -45 -140 34 -140 36 0 73 38 73 75 0 49 -59 85
-107 65z"/>
<path d="M3456 3529 c-35 -27 -37 -90 -4 -113 80 -56 167 48 94 111 -33 28
-56 29 -90 2z"/>
</g>
</svg>
