<?xml version="1.0" standalone="no"?>
<!DOCTYPE svg PUBLIC "-//W3C//DTD SVG 20010904//EN"
 "http://www.w3.org/TR/2001/REC-SVG-20010904/DTD/svg10.dtd">
<svg version="1.0" xmlns="http://www.w3.org/2000/svg"
 width="512.000000pt" height="512.000000pt" viewBox="0 0 512.000000 512.000000"
 preserveAspectRatio="xMidYMid meet">

<g transform="translate(0.000000,512.000000) scale(0.100000,-0.100000)"
fill="#000000" stroke="none">
<path d="M2470 5114 c-163 -32 -317 -143 -394 -284 -34 -63 -66 -188 -66 -260
0 -73 32 -197 67 -262 16 -28 58 -83 94 -122 36 -39 71 -81 77 -93 11 -20 17
-63 9 -63 -19 0 -250 -34 -312 -45 -451 -86 -896 -274 -1267 -536 -191 -136
-410 -327 -480 -421 -22 -29 -47 -80 -59 -120 -73 -239 82 -487 329 -527 62
-10 153 -2 205 18 16 6 33 11 38 11 5 0 9 -229 9 -585 0 -322 -2 -585 -4 -585
-2 0 -33 13 -68 30 -318 149 -678 -162 -604 -520 26 -123 66 -192 175 -301
163 -163 526 -438 590 -446 33 -5 48 3 158 82 173 123 367 281 456 370 95 95
151 200 169 317 38 254 -136 496 -385 531 -85 12 -161 -1 -232 -39 -25 -13
-48 -24 -51 -24 -2 0 -4 303 -4 673 l0 673 73 60 c383 321 875 521 1375 560
l92 7 0 -512 0 -511 -37 -19 c-62 -32 -100 -81 -193 -247 l-88 -159 -182 -37
c-206 -42 -253 -61 -309 -124 -49 -56 -71 -119 -71 -204 0 -94 27 -140 175
-299 69 -74 125 -139 125 -145 0 -6 -9 -83 -21 -171 -11 -88 -19 -185 -16
-216 14 -168 179 -294 340 -259 28 6 125 45 215 87 l163 75 162 -75 c185 -87
232 -101 296 -92 139 19 246 130 258 264 3 31 -5 128 -16 216 -12 88 -21 165
-21 171 0 6 56 71 125 145 148 159 175 205 175 299 0 85 -22 148 -71 204 -56
63 -107 84 -311 125 l-180 36 -87 158 c-92 165 -131 216 -193 248 l-38 19 0
510 0 510 30 0 c66 0 232 -22 370 -50 383 -77 727 -240 1048 -498 l92 -74 0
-673 0 -674 -63 29 c-308 145 -662 -145 -609 -498 26 -170 112 -286 363 -487
212 -171 378 -285 414 -285 37 0 174 94 400 275 252 202 336 310 371 475 43
206 -65 426 -251 514 -123 59 -249 58 -367 -3 l-58 -30 0 590 c0 359 4 589 9
589 5 0 22 -5 38 -11 52 -20 143 -28 205 -18 247 40 402 288 329 527 -26 86
-71 147 -187 255 -309 285 -649 500 -1029 650 -278 110 -491 162 -864 213 -43
6 -43 6 -38 40 4 26 26 56 79 113 143 151 193 317 153 506 -52 245 -260 421
-510 430 -49 2 -101 1 -115 -1z m244 -233 c75 -37 128 -92 164 -170 22 -47 27
-70 27 -141 0 -112 -28 -173 -121 -267 -72 -73 -108 -138 -119 -215 l-7 -48
-98 0 -98 0 -7 48 c-11 76 -47 142 -120 216 -93 95 -120 154 -120 266 0 70 5
95 26 140 86 185 293 260 473 171z m281 -1069 c155 -24 339 -65 450 -99 468
-145 903 -398 1232 -716 105 -102 129 -145 121 -227 -11 -111 -103 -195 -212
-194 -69 1 -103 21 -221 128 -410 374 -875 598 -1415 682 -161 24 -514 30
-683 10 -577 -67 -1073 -293 -1506 -686 -125 -114 -157 -133 -227 -134 -109
-1 -201 83 -212 194 -8 83 16 126 125 231 486 464 1131 758 1818 828 153 16
580 6 730 -17z m-380 -1827 c11 -7 65 -95 120 -195 55 -100 110 -189 121 -197
12 -7 113 -32 223 -53 111 -22 211 -44 221 -50 27 -14 40 -42 40 -85 0 -31
-12 -49 -102 -146 -192 -207 -202 -219 -202 -253 0 -17 10 -121 23 -231 24
-192 24 -201 7 -227 -10 -15 -33 -32 -52 -38 -33 -11 -45 -7 -232 79 -108 50
-208 91 -222 91 -14 0 -114 -41 -222 -91 -187 -86 -199 -90 -232 -79 -19 6
-42 23 -52 38 -17 26 -17 35 7 227 13 110 23 214 23 231 0 34 -10 46 -201 253
-96 102 -103 113 -103 151 0 51 31 86 86 96 194 34 379 75 396 86 11 8 67 97
123 198 85 154 107 188 136 202 34 18 58 16 94 -7z m-2050 -899 c30 -14 80
-55 125 -100 112 -114 144 -113 263 7 92 93 149 122 220 114 97 -12 190 -97
218 -200 15 -57 4 -139 -27 -201 -43 -86 -165 -199 -417 -387 l-130 -97 -116
86 c-273 201 -395 315 -439 410 -68 148 -1 325 143 376 59 21 104 19 160 -8z
m3484 4 c24 -11 82 -57 128 -103 79 -77 87 -82 128 -82 40 0 48 5 129 83 123
118 181 140 276 107 149 -52 217 -227 148 -377 -43 -93 -158 -201 -428 -403
-58 -43 -110 -82 -115 -86 -18 -14 -379 266 -482 374 -82 85 -107 139 -107
237 -1 65 3 82 29 129 66 119 187 169 294 121z"/>
</g>
</svg>
