<?xml version="1.0" standalone="no"?>
<!DOCTYPE svg PUBLIC "-//W3C//DTD SVG 20010904//EN"
 "http://www.w3.org/TR/2001/REC-SVG-20010904/DTD/svg10.dtd">
<svg version="1.0" xmlns="http://www.w3.org/2000/svg"
 width="512.000000pt" height="512.000000pt" viewBox="0 0 512.000000 512.000000"
 preserveAspectRatio="xMidYMid meet">

<g transform="translate(0.000000,512.000000) scale(0.100000,-0.100000)"
fill="#000000" stroke="none">
<path d="M155 5011 c-50 -22 -99 -70 -128 -125 -22 -41 -22 -42 -25 -676 -2
-443 1 -642 8 -661 17 -39 45 -49 150 -51 l95 -3 3 -1679 2 -1680 22 -23 21
-23 2257 0 2257 0 21 23 22 23 2 1680 3 1679 95 3 c105 2 133 12 150 51 7 19
10 218 8 661 -3 634 -3 635 -25 676 -29 55 -78 103 -128 125 -38 18 -136 19
-2405 19 -2269 0 -2367 -1 -2405 -19z m4769 -182 l26 -31 0 -564 0 -564 -2390
0 -2390 0 0 564 0 564 26 31 26 31 2338 0 2338 0 26 -31z m-234 -2739 l0
-1410 -2130 0 -2130 0 0 1410 0 1410 2130 0 2130 0 0 -1410z m0 -1705 l0 -125
-2130 0 -2130 0 0 125 0 125 2130 0 2130 0 0 -125z"/>
<path d="M1659 4667 c-119 -41 -197 -110 -253 -227 -29 -61 -31 -72 -31 -175
0 -102 2 -115 31 -175 54 -114 161 -204 280 -235 87 -23 1661 -23 1748 0 119
31 226 121 280 235 29 60 31 73 31 175 0 103 -2 114 -31 175 -57 119 -142 193
-262 230 -62 19 -95 20 -896 20 l-831 -1 -66 -22z m1743 -157 c59 -17 120 -69
151 -129 70 -139 4 -303 -146 -358 -24 -8 -248 -11 -847 -11 -599 0 -823 3
-847 11 -62 23 -119 73 -146 128 -68 136 -2 304 139 354 32 12 186 14 849 15
529 0 823 -4 847 -10z"/>
<path d="M1343 2983 c-13 -2 -32 -16 -43 -30 -20 -25 -20 -39 -20 -649 l0
-623 24 -28 24 -28 1232 0 1232 0 24 28 24 28 0 624 0 624 -24 28 -24 28
-1214 1 c-667 1 -1223 -1 -1235 -3z m2327 -678 l0 -515 -1110 0 -1110 0 0 515
0 515 1110 0 1110 0 0 -515z"/>
<path d="M1654 2536 c-21 -18 -28 -32 -28 -61 0 -29 7 -43 28 -61 l27 -24 285
0 285 0 24 25 c15 15 25 36 25 54 0 87 -14 91 -344 91 -275 0 -275 0 -302 -24z"/>
<path d="M2523 2550 c-75 -31 -45 -160 37 -160 66 0 105 87 63 139 -21 24 -68
35 -100 21z"/>
<path d="M1670 2207 c-53 -27 -62 -96 -18 -137 50 -47 138 -7 138 62 -1 40
-17 64 -54 78 -34 13 -35 12 -66 -3z"/>
<path d="M2012 2210 c-31 -13 -55 -71 -43 -104 23 -58 -10 -56 766 -56 l712 0
23 25 c32 34 32 87 2 118 l-23 22 -707 2 c-418 1 -716 -2 -730 -7z"/>
</g>
</svg>
