<?xml version="1.0" standalone="no"?>
<!DOCTYPE svg PUBLIC "-//W3C//DTD SVG 20010904//EN"
 "http://www.w3.org/TR/2001/REC-SVG-20010904/DTD/svg10.dtd">
<svg version="1.0" xmlns="http://www.w3.org/2000/svg"
 width="512.000000pt" height="512.000000pt" viewBox="0 0 512.000000 512.000000"
 preserveAspectRatio="xMidYMid meet">

<g transform="translate(0.000000,512.000000) scale(0.100000,-0.100000)"
fill="#000000" stroke="none">
<path d="M2145 5109 c-434 -66 -791 -361 -930 -768 -48 -141 -57 -212 -64
-473 l-6 -246 -30 -39 c-29 -36 -80 -66 -205 -122 -116 -51 -197 -171 -207
-304 -4 -65 0 -88 46 -244 73 -246 73 -249 -57 -413 -93 -117 -123 -181 -130
-271 -7 -102 22 -185 97 -277 89 -108 95 -179 23 -290 -59 -92 -75 -148 -70
-246 7 -118 33 -163 184 -317 l124 -125 -20 -47 c-11 -25 -30 -81 -42 -124
-19 -70 -22 -110 -26 -410 l-4 -333 30 -30 c17 -16 40 -30 52 -30 34 0 79 28
85 53 2 12 6 164 8 337 4 352 7 374 77 515 69 140 176 247 321 320 87 44 170
65 304 76 60 4 126 11 145 14 34 6 48 -3 328 -220 l292 -226 0 -307 c0 -272 2
-311 18 -342 33 -66 111 -66 144 0 16 31 18 70 18 342 l0 307 169 130 c93 72
171 138 175 146 14 39 6 73 -25 99 -55 47 -52 48 -308 -152 -52 -40 -100 -71
-107 -68 -17 6 -492 374 -499 387 -3 5 11 25 31 45 75 76 123 170 149 298 5
23 10 27 28 22 162 -45 412 -46 580 -2 195 50 376 155 522 301 132 132 223
278 279 450 49 152 56 227 56 615 0 412 7 384 -101 423 -178 63 -337 199 -418
357 -57 111 -75 130 -122 130 -35 0 -43 -6 -90 -62 -73 -90 -232 -250 -316
-320 -318 -260 -704 -416 -1146 -462 -107 -10 -132 -16 -150 -34 -32 -32 -29
-88 7 -118 31 -28 58 -29 204 -13 524 56 1010 291 1378 665 l100 102 29 -46
c78 -123 244 -263 387 -327 l67 -30 1 -301 c0 -324 -8 -407 -53 -539 -68 -199
-203 -375 -380 -494 -73 -49 -201 -107 -297 -133 -72 -19 -109 -23 -240 -23
-186 0 -270 19 -425 95 -258 126 -455 370 -515 639 -26 116 -37 141 -72 160
-34 19 -73 7 -101 -31 -20 -27 -20 -32 -8 -105 54 -321 272 -628 557 -784 69
-38 74 -43 74 -74 0 -93 -62 -209 -145 -273 -61 -46 -116 -63 -246 -73 -256
-20 -443 -105 -607 -278 l-62 -65 -96 94 c-110 110 -134 148 -134 220 0 53 10
80 59 152 90 134 81 313 -22 439 -67 81 -87 120 -87 167 0 61 19 98 104 206
103 129 128 181 134 277 4 70 0 93 -48 255 -57 196 -59 235 -19 300 26 43 56
63 154 103 95 39 157 84 202 148 54 76 63 123 63 327 0 100 5 222 11 271 50
412 353 746 764 841 71 17 125 19 470 19 371 0 394 -1 478 -22 343 -88 605
-334 710 -668 34 -110 47 -228 47 -441 0 -205 8 -247 65 -329 44 -65 98 -103
200 -146 98 -40 128 -60 154 -103 40 -65 38 -104 -19 -300 -48 -162 -52 -185
-48 -255 6 -96 31 -148 134 -277 41 -53 82 -111 90 -130 31 -75 11 -141 -73
-243 -103 -126 -112 -305 -22 -439 49 -73 59 -99 59 -155 0 -68 -28 -113 -144
-227 l-86 -84 -62 65 c-167 176 -399 279 -630 279 -108 0 -223 53 -283 130
-44 57 -74 80 -102 80 -36 0 -71 -24 -84 -57 -29 -76 139 -247 286 -293 22 -7
43 -15 48 -19 4 -4 -70 -275 -164 -602 -94 -326 -171 -610 -171 -629 0 -25 7
-40 27 -57 55 -48 123 -16 146 69 6 24 86 304 177 623 l167 580 30 -3 c70 -6
135 -27 220 -67 148 -72 254 -176 325 -320 69 -139 72 -161 79 -532 7 -368 5
-358 74 -370 31 -5 40 -1 67 26 l32 31 -4 333 c-4 300 -7 340 -26 410 -12 43
-31 99 -42 124 l-20 47 124 125 c151 154 177 199 184 317 5 98 -11 154 -70
246 -66 102 -65 183 5 269 96 118 123 188 115 299 -7 89 -38 153 -130 270
-129 163 -130 170 -61 398 41 134 47 169 47 242 0 71 -4 94 -26 142 -34 73
-109 148 -178 179 -125 56 -176 86 -205 122 l-30 39 -6 246 c-7 260 -16 332
-64 471 -127 374 -443 659 -832 753 -81 19 -121 21 -478 24 -214 1 -417 -2
-450 -7z"/>
<path d="M1804 1070 c-27 -11 -54 -48 -54 -74 0 -20 242 -888 262 -939 22 -56
84 -74 131 -37 13 11 27 30 31 43 8 32 -256 964 -281 988 -23 22 -62 31 -89
19z"/>
</g>
</svg>
