<?xml version="1.0" standalone="no"?>
<!DOCTYPE svg PUBLIC "-//W3C//DTD SVG 20010904//EN"
 "http://www.w3.org/TR/2001/REC-SVG-20010904/DTD/svg10.dtd">
<svg version="1.0" xmlns="http://www.w3.org/2000/svg"
 width="512.000000pt" height="512.000000pt" viewBox="0 0 512.000000 512.000000"
 preserveAspectRatio="xMidYMid meet">

<g transform="translate(0.000000,512.000000) scale(0.100000,-0.100000)"
fill="#000000" stroke="none">
<path d="M3008 4900 c-452 -34 -759 -246 -847 -584 -12 -44 -21 -88 -21 -98 0
-23 -7 -23 -74 7 -226 100 -577 109 -833 22 -281 -96 -479 -329 -539 -635 -9
-49 -14 -141 -14 -272 0 -134 -4 -201 -11 -206 -6 -3 -24 -34 -40 -68 -29 -61
-29 -61 -29 -262 0 -229 8 -266 69 -336 21 -24 46 -68 56 -98 46 -140 109
-253 222 -397 l73 -94 0 -131 c0 -149 -14 -196 -73 -240 -18 -14 -176 -114
-351 -224 -385 -240 -444 -290 -520 -444 -63 -129 -76 -204 -76 -441 l0 -189
2560 0 2560 0 0 199 c0 227 -14 329 -60 442 -60 148 -182 288 -320 369 -36 21
-251 131 -479 244 -286 144 -422 217 -443 239 -53 58 -61 88 -65 267 l-5 165
34 45 c92 122 211 337 258 468 14 38 33 70 48 80 65 45 114 99 144 160 l33 66
3 196 c5 238 -5 315 -53 394 l-34 56 -3 333 c-4 371 -7 390 -86 542 -45 86
-181 227 -267 276 -209 121 -495 173 -817 149z m407 -186 c187 -28 324 -91
430 -199 81 -81 115 -140 144 -245 19 -69 21 -101 21 -411 l0 -336 26 -24 c53
-49 58 -72 62 -252 6 -276 -6 -319 -109 -370 -56 -28 -57 -30 -84 -105 -65
-182 -167 -370 -276 -509 l-49 -63 0 -167 c0 -267 24 -358 118 -452 44 -43
107 -78 484 -267 238 -119 463 -236 500 -261 131 -87 224 -225 253 -378 8 -42
15 -126 15 -186 l0 -109 -1790 0 -1790 0 0 141 c0 96 5 161 16 203 34 134 130
269 243 345 31 21 234 134 451 252 325 176 404 223 448 266 97 96 121 187 122
453 l0 156 -51 69 c-117 163 -213 366 -260 553 -10 40 -20 57 -46 75 -65 43
-73 78 -73 305 0 219 5 246 53 292 l27 25 0 317 c0 350 8 426 58 532 102 216
332 342 669 365 130 9 266 4 388 -15z m-1550 -604 c55 -12 123 -36 175 -62
l85 -43 3 -207 c2 -205 2 -207 -22 -243 -52 -76 -58 -114 -54 -372 3 -233 4
-239 29 -294 15 -31 42 -74 61 -95 24 -26 44 -66 61 -119 52 -161 130 -322
229 -467 l38 -57 0 -169 c0 -189 -7 -218 -63 -274 -42 -42 -279 -170 -300
-162 -9 3 -17 -1 -21 -13 -4 -11 -101 -70 -244 -147 -130 -72 -267 -150 -304
-174 -105 -68 -199 -176 -258 -296 -61 -123 -79 -204 -87 -393 l-6 -143 -509
0 -508 0 0 103 c0 121 19 208 63 291 56 108 114 154 477 380 184 115 352 225
373 245 21 20 52 65 70 101 l32 64 3 193 4 192 -64 73 c-121 138 -206 286
-248 426 -17 58 -29 80 -63 111 l-42 40 -3 177 c-2 98 -1 188 3 201 3 13 21
40 39 61 l34 37 4 260 c5 282 9 307 70 430 102 208 294 332 563 365 97 12 273
3 380 -20z"/>
</g>
</svg>
